# xmcd
#
# Track frame offsets: 
#        150
#        41045
#        66436
#        81405
#        107508
#        138487
#        151124
#        154340
#        168851
#        182964
#        199798
#        205229
#        227628
#
# Disc length: 3382 seconds
#
# Revision: 0
# Processed by: cddbd v1.5.2PL0 Copyright (c) Steve Scherf et al.
# Submitted via: ExactAudioCopyFreeDBPlugin 1.0
#
DISCID=b20d340d
DTITLE=Garcia Jerry, Grisman David, Rice Tony - The Pizza Tapes #2
DYEAR=1993
DGENRE=Acoustic
TTITLE0=Shady Grove 3
TTITLE1=Guitar Space
TTITLE2=Summertime (run through)
TTITLE3=Summertime
TTITLE4=Long Black Veil (run through)
TTITLE5=Long Black Veil 1 (incomplete)
TTITLE6=Rosa Lee McFall (run through)
TTITLE7=Rosa Lee McFall 1
TTITLE8=Rosa Lee McFall 2
TTITLE9=Drifting Too Far From The Shore (inc. run through)
TTITLE10=Nestles Quick
TTITLE11=Drifting Too Far From The Shore 1
TTITLE12=Jerry Plays Tonys D-28
EXTD=
EXTT0=
EXTT1=
EXTT2=
EXTT3=
EXTT4=
EXTT5=
EXTT6=
EXTT7=
EXTT8=
EXTT9=
EXTT10=
EXTT11=
EXTT12=
PLAYORDER=
